<?xml version="1.0"?>
<svg width="3750.000000000001" height="3750.000000000001" xmlns="http://www.w3.org/2000/svg" xmlns:svg="http://www.w3.org/2000/svg" viewBox="980 980 1800 1800">
 <g class="layer" display="inline">
  <title>Layer 1</title>
  <circle cx="1209.59" cy="1089.1" fill="rgb(13.330078%, 13.330078%, 13.330078%)" id="svg_11" r="715.65" transform="matrix(1.17876 0 0 1.17212 448.088 596.39)"/>
  <path d="m2223.52,2350.59c131.16,17.34 212.5,59.75 264.04,104.61c-153.13,161.64 -369.45,262.65 -609.75,263.43c157.07,-113.57 269.44,-238.29 345.71,-368.04zm0,0" fill="rgb(89.0625%, 28.24707%, 17.259216%)" fill-rule="nonzero" id="svg_3"/>
  <path d="m2129.52,2343.39c8.57,0.02 17.41,0.47 26.25,0.95c-81.88,129.75 -204.48,254.61 -379.64,368.53c-215.43,-25.12 -405.88,-131.11 -540.29,-286.99c200.69,86.92 349.57,72.56 478.39,31.98c142.55,-44.9 259.53,-114.83 415.29,-114.38l0,-0.09zm0,0" fill="rgb(89.0625%, 28.24707%, 17.259216%)" fill-rule="nonzero" id="svg_4"/>
  <path d="m2703.86,2032.72c-26.57,140.75 -87.88,269.12 -174.93,375.73c-57.94,-50.34 -145.21,-95.35 -273.8,-116.21c34.82,-69.44 59.99,-139.98 76.66,-210.69c145.42,-7.7 270.04,-26.86 372.07,-48.83zm0,0" fill="rgb(89.0625%, 28.24707%, 17.259216%)" fill-rule="nonzero" id="svg_5"/>
  <path d="m1031.98,1845.46c485.72,197.32 907.52,247.86 1235.84,238.65c-16.91,67.25 -42.12,134.15 -77.14,200.08c-8.43,-0.71 -16.77,-1.42 -25.52,-2.13c-191.99,-12.21 -327.3,71.23 -469.72,116.09c-142.03,44.74 -292.64,58.48 -540.17,-82.52c-78.63,-128.24 -124.02,-279.07 -124.02,-440.67c0,-9.9 0.46,-19.73 0.72,-29.55l0.01,0.05zm0,0" fill="rgb(89.0625%, 28.24707%, 17.259216%)" fill-rule="nonzero" id="svg_6"/>
  <path d="m2687.02,1645.27c20.59,73.05 31.73,150.05 31.73,229.73c0,30.96 -1.66,61.47 -5,91.56c-99.41,22.6 -223.18,43.16 -369.39,51.88c11.01,-66.16 15.14,-132.22 13.18,-197.39c-0.29,-9.49 -1.17,-18.87 -1.66,-28.32c161.72,-6.07 266.67,-71.96 331.18,-147.46l-0.04,0zm0,0" fill="rgb(89.0625%, 28.24707%, 17.259216%)" fill-rule="nonzero" id="svg_7"/>
  <path d="m1431.4,1427.25c98.37,1.66 188.07,37.32 276.73,87.16c177.33,99.69 346.6,258.78 564.94,276.49c6.95,0.47 13.49,0.71 20.27,0.94c0.72,10.4 1.43,20.72 1.89,31.13c1.9,65.69 -2.12,132.06 -13.91,198.37c-326.59,11.19 -751.54,-37.98 -1244.51,-241.46c9.15,-81.71 29.8,-159.99 60.55,-232.91c128.42,-90.26 236.46,-121.43 334.1,-119.75l-0.06,0.03zm0,0" fill="rgb(89.0625%, 28.24707%, 17.259216%)" fill-rule="nonzero" id="svg_8"/>
  <path d="m2087.04,1058.11c265.31,68.57 479.64,262.87 576.17,515.62c-51.22,77.3 -140.59,152.53 -312.38,156.87c-28.46,-257.81 -141.03,-495.82 -263.79,-672.49zm0,0" fill="rgb(89.0625%, 28.24707%, 17.259216%)" fill-rule="nonzero" id="svg_9"/>
  <path d="m1875,1031.25c41.37,0 81.94,3.17 121.71,8.91c130.45,171.17 259.04,421.2 291.01,688.96c-3.28,-0.22 -6.3,-0.19 -9.64,-0.47c-190,-15.4 -352.82,-163.83 -539.31,-268.67c-93.23,-52.42 -193.45,-93.28 -306.27,-95.22c-86.64,-1.42 -179.64,20.53 -280.52,74.95c147.61,-244.81 416.02,-408.44 723.02,-408.44l0,-0.02zm0,0" fill="rgb(89.0625%, 28.24707%, 17.259216%)" fill-rule="nonzero" id="svg_10"/>
 </g>
</svg>